REM DIRINDEX 1\2,1\3,1\4,1\5
REM DIRNAME folder01,folder02,folder03,folder04,folder05
TITLE ""
FILE "1800_107.mp3" MP3
  TRACK 01 AUDIO
    TITLE "2:cjc044_2997"
    INDEX 01 00:00:00
  TRACK 02 AUDIO
    TITLE "0:"
    INDEX 01 00:01:13
  TRACK 03 AUDIO
    TITLE "3:cjc044_2998"
    INDEX 01 00:01:66
  TRACK 04 AUDIO
    TITLE "0:"
    INDEX 01 00:03:14
  TRACK 05 AUDIO
    TITLE "4:cjc044_2999"
    INDEX 01 00:03:70
  TRACK 06 AUDIO
    TITLE "0:"
    INDEX 01 00:05:18
  TRACK 07 AUDIO
    TITLE "5:cjc044_3000"
    INDEX 01 00:05:73
  TRACK 08 AUDIO
    TITLE "0:"
    INDEX 01 00:09:00
  TRACK 09 AUDIO
    TITLE "2:cjc044_3001"
    INDEX 01 00:10:57
  TRACK 10 AUDIO
    TITLE "0:"
    INDEX 01 00:11:68
  TRACK 11 AUDIO
    TITLE "3:cjc044_3002"
    INDEX 01 00:12:46
  TRACK 12 AUDIO
    TITLE "0:"
    INDEX 01 00:13:61
  TRACK 13 AUDIO
    TITLE "4:cjc044_3003"
    INDEX 01 00:14:47
  TRACK 14 AUDIO
    TITLE "0:"
    INDEX 01 00:15:58
  TRACK 15 AUDIO
    TITLE "5:cjc044_3004"
    INDEX 01 00:16:40
  TRACK 16 AUDIO
    TITLE "0:"
    INDEX 01 00:20:08
  TRACK 17 AUDIO
    TITLE "2:cjc044_3005"
    INDEX 01 00:21:60
  TRACK 18 AUDIO
    TITLE "0:"
    INDEX 01 00:22:74
  TRACK 19 AUDIO
    TITLE "3:cjc044_3006"
    INDEX 01 00:23:53
  TRACK 20 AUDIO
    TITLE "0:"
    INDEX 01 00:24:53
  TRACK 21 AUDIO
    TITLE "4:cjc044_3007"
    INDEX 01 00:25:39
  TRACK 22 AUDIO
    TITLE "0:"
    INDEX 01 00:26:50
  TRACK 23 AUDIO
    TITLE "5:cjc044_3008"
    INDEX 01 00:27:26
  TRACK 24 AUDIO
    TITLE "0:"
    INDEX 01 00:31:02
  TRACK 25 AUDIO
    TITLE "2:cjc044_3009"
    INDEX 01 00:32:62
  TRACK 26 AUDIO
    TITLE "0:"
    INDEX 01 00:34:00
  TRACK 27 AUDIO
    TITLE "3:cjc044_3010"
    INDEX 01 00:34:57
  TRACK 28 AUDIO
    TITLE "0:"
    INDEX 01 00:35:70
  TRACK 29 AUDIO
    TITLE "4:cjc044_3011"
    INDEX 01 00:36:56
  TRACK 30 AUDIO
    TITLE "0:"
    INDEX 01 00:37:69
  TRACK 31 AUDIO
    TITLE "5:cjc044_3012"
    INDEX 01 00:38:49
  TRACK 32 AUDIO
    TITLE "0:"
    INDEX 01 00:42:59
  TRACK 33 AUDIO
    TITLE "2:cjc044_3013"
    INDEX 01 00:44:40
  TRACK 34 AUDIO
    TITLE "0:"
    INDEX 01 00:45:59
  TRACK 35 AUDIO
    TITLE "3:cjc044_3014"
    INDEX 01 00:46:37
  TRACK 36 AUDIO
    TITLE "0:"
    INDEX 01 00:47:56
  TRACK 37 AUDIO
    TITLE "4:cjc044_3015"
    INDEX 01 00:48:38
  TRACK 38 AUDIO
    TITLE "0:"
    INDEX 01 00:49:59
  TRACK 39 AUDIO
    TITLE "5:cjc044_3016"
    INDEX 01 00:50:35
  TRACK 40 AUDIO
    TITLE "0:"
    INDEX 01 00:53:58
  TRACK 41 AUDIO
    TITLE "2:cjc044_3017"
    INDEX 01 00:55:40
  TRACK 42 AUDIO
    TITLE "0:"
    INDEX 01 00:56:55
  TRACK 43 AUDIO
    TITLE "3:cjc044_3018"
    INDEX 01 00:57:41
  TRACK 44 AUDIO
    TITLE "0:"
    INDEX 01 00:59:16
  TRACK 45 AUDIO
    TITLE "4:cjc044_3019"
    INDEX 01 01:00:04
  TRACK 46 AUDIO
    TITLE "0:"
    INDEX 01 01:01:23
  TRACK 47 AUDIO
    TITLE "5:cjc044_3020"
    INDEX 01 01:01:66
  TRACK 48 AUDIO
    TITLE "0:"
    INDEX 01 01:04:70
  TRACK 49 AUDIO
    TITLE "2:cjc044_3021"
    INDEX 01 01:06:59
  TRACK 50 AUDIO
    TITLE "0:"
    INDEX 01 01:07:74
  TRACK 51 AUDIO
    TITLE "3:cjc044_3022"
    INDEX 01 01:08:60
  TRACK 52 AUDIO
    TITLE "0:"
    INDEX 01 01:10:20
  TRACK 53 AUDIO
    TITLE "4:cjc044_3023"
    INDEX 01 01:11:05
  TRACK 54 AUDIO
    TITLE "0:"
    INDEX 01 01:12:24
  TRACK 55 AUDIO
    TITLE "5:cjc044_3024"
    INDEX 01 01:12:70
  TRACK 56 AUDIO
    TITLE "0:"
    INDEX 01 01:16:16
  TRACK 57 AUDIO
    TITLE "2:cjc044_3025"
    INDEX 01 01:18:04
  TRACK 58 AUDIO
    TITLE "0:"
    INDEX 01 01:19:05
  TRACK 59 AUDIO
    TITLE "3:cjc044_3026"
    INDEX 01 01:19:64
  TRACK 60 AUDIO
    TITLE "0:"
    INDEX 01 01:20:53
  TRACK 61 AUDIO
    TITLE "4:cjc044_3027"
    INDEX 01 01:21:39
  TRACK 62 AUDIO
    TITLE "0:"
    INDEX 01 01:22:35
  TRACK 63 AUDIO
    TITLE "5:cjc044_3028"
    INDEX 01 01:23:20
  TRACK 64 AUDIO
    TITLE "0:"
    INDEX 01 01:27:08
  TRACK 65 AUDIO
    TITLE "2:cjc044_3029"
    INDEX 01 01:28:74
  TRACK 66 AUDIO
    TITLE "0:"
    INDEX 01 01:30:01
  TRACK 67 AUDIO
    TITLE "3:cjc044_3030"
    INDEX 01 01:30:66
  TRACK 68 AUDIO
    TITLE "0:"
    INDEX 01 01:32:13
  TRACK 69 AUDIO
    TITLE "4:cjc044_3031"
    INDEX 01 01:32:74
  TRACK 70 AUDIO
    TITLE "0:"
    INDEX 01 01:34:06
  TRACK 71 AUDIO
    TITLE "5:cjc044_3032"
    INDEX 01 01:34:55
  TRACK 72 AUDIO
    TITLE "0:"
    INDEX 01 01:38:10
